# AST/ASF file generated using VICON BodyLanguage
# -----------------------------------------------
:version 1.10
:name VICON
:units
  mass 1.0
  length 0.45
  angle deg
:documentation
   .ast/.asf automatically generated from VICON data using
   VICON BodyBuilder and BodyLanguage model FoxedUp or BRILLIANT.MOD
:root
   order TX TY TZ RX RY RZ
   axis XYZ
   position 0 0 0  
   orientation 0 0 0 
:bonedata
  begin
     id 1 
     name lhipjoint
     direction 0.561001 -0.76473 0.316963 
     length 2.4722 
     axis 0 0 0  XYZ
  end
  begin
     id 2 
     name lfemur
     direction 0.34202 -0.939693 0  
     length 7.59403  
     axis 0 0 20  XYZ
    dof rx ry rz
    limits (-160.0 20.0)
           (-70.0 70.0)
           (-60.0 70.0)
  end
  begin
     id 3 
     name ltibia
     direction 0.34202 -0.939693 0   
     length 7.89655   
     axis 0 0 20   XYZ
    dof rx
    limits (-10.0 170.0)
  end
  begin
     id 4 
     name lfoot
     direction 0.061296 -0.168409 0.98381   
     length 2.73287   
     axis -90 7.62852e-016 20   XYZ
    dof rx rz
    limits (-45.0 90.0)
           (-70.0 20.0)
  end
  begin
     id 5 
     name ltoes
     direction 1.53547e-011 -4.21984e-011 1   
     length 1.37057   
     axis -90 7.62852e-016 20   XYZ
    dof rx
    limits (-90.0 20.0)
  end
  begin
     id 6 
     name rhipjoint
     direction -0.559611 -0.765599 0.317323   
     length 2.46939  
     axis 0 0 0  XYZ 
  end
  begin
     id 7 
     name rfemur
     direction -0.34202 -0.939693 0   
     length 7.53712   
     axis 0 0 -20   XYZ
    dof rx ry rz
    limits (-160.0 20.0)
           (-70.0 70.0)
           (-70.0 60.0)
  end
  begin
     id 8 
     name rtibia
     direction -0.34202 -0.939693 0   
     length 8.12549   
     axis 0 0 -20   XYZ
    dof rx
    limits (-10.0 170.0)
 end
 begin
     id 9 
     name rfoot
     direction -0.066984 -0.184037 0.980634   
     length 2.67541  
     axis -90 -7.62852e-016 -20   XYZ
    dof rx rz
    limits (-45.0 90.0)
           (-20.0 70.0)
  end
  begin
     id 10 
     name rtoes
     direction -1.53549e-011 -4.21786e-011 1   
     length 1.34085   
     axis -90 -7.62852e-016 -20   XYZ
    dof rx
    limits (-90.0 20.0)
  end
  begin
     id 11 
     name lowerback
     direction -0.0522728 0.992594 -0.109658   
     length 2.05633   
     axis 0 0 0   XYZ
    dof rx ry rz
    limits (-20.0 45.0)
           (-30.0 30.0)
           (-30.0 30.0)
  end
  begin
     id 12 
     name upperback
     direction 0.00589338 0.999977 0.00335704   
     length 2.05845   
     axis 0 0 0   XYZ
    dof rx ry rz
    limits (-20.0 45.0)
           (-30.0 30.0)
           (-30.0 30.0)
  end
  begin
     id 13 
     name thorax
     direction 0.0292928 0.998059 0.0549487   
     length 2.09281   
     axis 0 0 0   XYZ
    dof rx ry rz
    limits (-20.0 45.0)
           (-30.0 30.0)
           (-30.0 30.0)
  end
  begin
     id 14 
     name lowerneck
     direction 0.0356368 0.980775 0.191858   
     length 1.84767   
     axis 0 0 0   XYZ
    dof rx ry rz
    limits (-20.0 45.0)
           (-30.0 30.0)
           (-30.0 30.0)
  end
  begin
     id 15 
     name upperneck
     direction -0.0227605 0.98931 -0.14404   
     length 1.89582   
     axis 0 0 0   XYZ
    dof rx ry rz
    limits (-20.0 45.0)
           (-30.0 30.0)
           (-30.0 30.0)
  end
  begin
     id 16
     name head
     direction -0.00932985 0.997511 -0.0698904  
     length 1.90213  
     axis 0 0 0   XYZ
    dof rx ry rz
    limits (-20.0 45.0)
           (-30.0 30.0)
           (-30.0 30.0)
  end
  begin
     id 17 
     name lclavicle
     direction 0.873442 0.479511 0.0846686  
     length 3.41193  
     axis 0 0 0   XYZ
    dof ry rz
    limits (-20.0 10.0)
           (0.0 20.0)
  end
  begin
     id 18 
     name lhumerus
     direction 1 -4.4897e-011 -5.62117e-018   
     length 5.59864   
     axis 180 -30 -90   XYZ
    dof rx ry rz
    limits (-60.0 90.0)
           (-90.0 90.0)
           (-90.0 90.0)
  end
  begin
     id 19
     name lradius
     direction 1 -4.48966e-011 -6.26295e-027   
     length 3.59542   
     axis 180 -30 -90   XYZ
    dof rx
    limits (-10.0 170.0)
  end
  begin
     id 20
     name lwrist
     direction 1 -4.48947e-011 -1.74096e-026   
     length 1.79771   
     axis 1.04567e-014 90 90   XYZ
    dof ry
    limits (-180.0 0.0)
 end
  begin
     id 21 
     name lhand
     direction 1 -4.49085e-011 -3.48469e-026   
     length 0.572014   
     axis 2.22196e-014 90 90   XYZ
    dof rx rz
    limits (-90.0 90.0)
           (-45.0 45.0)
  end
  begin
     id 22 
     name lfingers
     direction 1 -4.48884e-011 -6.96135e-026   
     length 0.461173   
     axis 4.44383e-014 90 90   XYZ
    dof rx
    limits (0.0 90.0)
  end
  begin
     id 23
     name lthumb
     direction 0.707107 -6.34976e-011 0.707107   
     length 0.662154   
     axis -90 45 -5.4397e-014   XYZ
    dof rx rz
    limits (-45.0 45.0)
           (-45.0 45.0)
  end
  begin
     id 24 
     name rclavicle
     direction -0.890242 0.443271 0.104786   
     length 3.46753  
     axis 0 0 0   XYZ 
    dof ry rz
    limits (-10.0 20.0)
           (-20.0 0.0)
  end
  begin
     id 25 
     name rhumerus
     direction -1 -4.48963e-011 -5.41723e-018  
     length 5.8094   
     axis 180 30 90   XYZ
    dof rx ry rz
    limits (-90.0 60.0)
           (-90.0 90.0)
           (-90.0 90.0)
  end
  begin
     id 26 
     name rradius
     direction -1 -4.48958e-011 -6.51059e-027   
     length 3.66953   
     axis 180 30 90   XYZ
    dof rx
    limits (-10.0 170.0)
  end
  begin
     id 27 
     name rwrist
     direction -1 -4.48975e-011 -1.74124e-026   
     length 1.83476   
     axis 1.04567e-014 -90 -90   XYZ
    dof ry
    limits (-180.0 0.0)
  end
  begin
     id 28
     name rhand
     direction -1 -4.49013e-011 -3.48326e-026   
     length 0.57843   
     axis 2.22196e-014 -90 -90   XYZ
    dof rx rz
    limits (-90.0 90.0)
           (-45.0 45.0)
  end
  begin
     id 29
     name rfingers
     direction -1 -4.49023e-011 -6.9669e-026   
     length 0.466345   
     axis 4.44383e-014 -90 -90   XYZ
    dof rx
    limits (0.0 90.0)
  end
  begin
     id 30
     name rthumb
     direction -0.707107 -6.34926e-011 0.707107   
     length 0.669581   
     axis -90 -45 5.4397e-014   XYZ
    dof rx rz
    limits (-45.0 45.0)
           (-45.0 45.0)
  end
:hierarchy
  begin
    root lhipjoint rhipjoint lowerback
    lhipjoint lfemur
    lfemur ltibia
    ltibia lfoot
    lfoot ltoes
    rhipjoint rfemur
    rfemur rtibia
    rtibia rfoot
    rfoot rtoes
    lowerback upperback
    upperback thorax
    thorax lowerneck lclavicle rclavicle
    lowerneck upperneck
    upperneck head
    lclavicle lhumerus
    lhumerus lradius
    lradius lwrist
    lwrist lhand lthumb
    lhand lfingers
    rclavicle rhumerus
    rhumerus rradius
    rradius rwrist
    rwrist rhand rthumb
    rhand rfingers
  end

#!OML:ASF H:\SkateBoarding\Project 1\Capture day 1\Session 1\Skater.ASF
:FULLY-SPECIFIED
:DEGREES
337
root 1.48899 19.3559 36.3945 11.0674 49.1223 3.71143
lowerback 9.41045 -3.43502 -1.13041
upperback -1.02673 -4.65862 0.759122
thorax -6.19497 -2.23517 2.10254
lowerneck -13.7511 -2.85837 -1.80733
upperneck 27.2171 -0.922174 -8.33101
head 11.065 -1.51721 -2.83149
rclavicle -1.46604e-014 1.63003e-014
rhumerus -17.0017 31.5659 -85.2687
rradius 45.1454
rwrist -11.6945
rhand -41.0938 0.995932
rfingers 7.12502
rthumb -14.022 -28.5111
lclavicle -1.46604e-014 1.63003e-014
lhumerus -2.00744 -50.061 100.275
lradius 47.3814
lwrist 16.9227
lhand 5.03568 12.1098
lfingers 7.12502
lthumb 30.404 39.6232
rfemur -31.1281 -6.59419 21.9771
rtibia 48.0449
rfoot -33.1247 -1.25406
rtoes -11.8421
lfemur -19.112 14.0455 -17.5798
ltibia 52.8267
lfoot -40.6716 -1.12647
ltoes -20.5054
338
root 1.47327 19.3671 36.7454 10.82 50.0021 3.54791
lowerback 9.15056 -3.47813 -1.20823
upperback -1.10806 -4.72554 0.740219
thorax -6.12635 -2.26744 2.12023
lowerneck -13.7319 -2.90612 -1.7792
upperneck 27.3064 -0.985667 -8.33218
head 11.0914 -1.54304 -2.84766
rclavicle -5.48646e-014 1.68967e-014
rhumerus -18.5232 31.7777 -85.9214
rradius 46.1779
rwrist -12.1267
rhand -41.1151 0.925119
rfingers 7.12502
rthumb -14.0425 -28.5805
lclavicle -5.48646e-014 1.68967e-014
lhumerus -3.71579 -49.4199 101.314
lradius 46.5709
lwrist 17.9386
lhand 5.00341 12.9402
lfingers 7.12502
lthumb 30.3732 40.4593
rfemur -30.6519 -6.7952 22.1371
rtibia 47.6678
rfoot -33.5508 -1.57269
rtoes -11.5531
lfemur -19.0053 13.9472 -17.6776
ltibia 51.6335
lfoot -40.8613 -0.372909
ltoes -20.2522
339
root 1.45876 19.3775 37.0963 10.52 50.8585 3.33408
lowerback 8.90036 -3.50972 -1.27811
upperback -1.18974 -4.77528 0.729537
thorax -6.06399 -2.29125 2.14007
lowerneck -13.7189 -2.95476 -1.75897
upperneck 27.3999 -1.05136 -8.32099
head 11.1208 -1.56934 -2.85858
rclavicle 9.72554e-014 -1.05356e-014
rhumerus -20.072 31.9328 -86.5689
rradius 47.2115
rwrist -12.5533
rhand -41.137 0.850851
rfingers 7.12502
rthumb -14.0637 -28.6533
lclavicle 9.72554e-014 -1.05356e-014
lhumerus -5.3144 -48.7788 102.225
lradius 45.7929
lwrist 18.8998
lhand 4.69629 13.5775
lfingers 7.12502
lthumb 30.0802 41.1502
rfemur -30.167 -6.98529 22.3151
rtibia 47.2893
rfoot -33.9581 -1.87569
rtoes -11.2944
lfemur -18.8454 13.8326 -17.7161
ltibia 50.4813
lfoot -40.9265 0.443873
ltoes -19.9828
340
root 1.44542 19.3875 37.4472 10.1671 51.6864 3.07773
lowerback 8.66524 -3.52825 -1.34607
upperback -1.2698 -4.80688 0.722281
thorax -6.00892 -2.30594 2.16077
lowerneck -13.712 -3.00314 -1.74647
upperneck 27.5022 -1.12034 -8.28732
head 11.155 -1.59545 -2.86087
rclavicle -7.72278e-014 4.57205e-015
rhumerus -21.6368 32.0145 -87.2139
rradius 48.2248
rwrist -12.9526
rhand -41.1492 0.79064
rfingers 7.12502
rthumb -14.0754 -28.7127
lclavicle -7.72278e-014 4.57205e-015
lhumerus -6.81102 -48.1604 103.011
lradius 45.0443
lwrist 19.7722
lhand 4.12772 14.0083
lfingers 7.12502
lthumb 29.5376 41.6783
rfemur -29.6657 -7.16354 22.501
rtibia 46.9053
rfoot -34.3436 -2.16172
rtoes -11.0211
lfemur -18.6213 13.6895 -17.6989
ltibia 49.3756
lfoot -40.8974 1.29536
ltoes -19.7464
341
root 1.43323 19.3978 37.7978 9.75781 52.485 2.77709
lowerback 8.45 -3.53723 -1.40995
upperback -1.34896 -4.82496 0.717171
thorax -5.96474 -2.3138 2.18097
lowerneck -13.7105 -3.04768 -1.73254
upperneck 27.615 -1.18925 -8.23351
head 11.1942 -1.6192 -2.85654
rclavicle -6.73135e-014 1.30204e-014
rhumerus -23.2093 32.0277 -87.8604
rradius 49.1994
rwrist -13.2939
rhand -41.1638 0.734248
rfingers 7.12502
rthumb -14.0895 -28.7681
lclavicle -6.73135e-014 1.30204e-014
lhumerus -8.21142 -47.5738 103.674
lradius 44.3259
lwrist 20.5412
lhand 3.35071 14.2698
lfingers 7.12502
lthumb 28.7956 42.0685
rfemur -29.1469 -7.33254 22.6918
rtibia 46.5148
rfoot -34.7076 -2.42719
rtoes -10.7363
lfemur -18.3323 13.5138 -17.6249
ltibia 48.3224
lfoot -40.7932 2.1122
ltoes -19.4893
342
root 1.42222 19.4087 38.1477 9.30868 53.252 2.45061
lowerback 8.25254 -3.5356 -1.47622
upperback -1.42805 -4.82919 0.708787
thorax -5.93117 -2.31452 2.19858
lowerneck -13.7084 -3.09059 -1.71797
upperneck 27.7351 -1.26247 -8.15674
head 11.2362 -1.6421 -2.84469
rclavicle 1.22166e-013 -5.96354e-016
rhumerus -24.7818 31.9674 -88.5076
rradius 50.1218
rwrist -13.5831
rhand -41.1748 0.688305
rfingers 7.12502
rthumb -14.1001 -28.8133
lclavicle 1.22166e-013 -5.96354e-016
lhumerus -9.53069 -47.0318 104.23
lradius 43.647
lwrist 21.2074
lhand 2.4065 14.419
lfingers 7.12502
lthumb 27.8933 42.3677
rfemur -28.6168 -7.49499 22.8705
rtibia 46.1211
rfoot -35.0476 -2.67471
rtoes -10.412
lfemur -17.9752 13.2626 -17.5099
ltibia 47.3237
lfoot -40.6657 2.83297
ltoes -19.1959
343
root 1.412 19.4197 38.4966 8.83582 53.9891 2.11103
lowerback 8.06805 -3.52526 -1.55171
upperback -1.50733 -4.82287 0.695292
thorax -5.90526 -2.30958 2.21563
lowerneck -13.7078 -3.12993 -1.70223
upperneck 27.8608 -1.33824 -8.05487
head 11.2807 -1.66303 -2.82436
rclavicle -1.11444e-014 -1.31695e-014
rhumerus -26.3435 31.8322 -89.1534
rradius 50.979
rwrist -13.8122
rhand -41.1816 0.65477
rfingers 7.12502
rthumb -14.1066 -28.8464
lclavicle -1.11444e-014 -1.31695e-014
lhumerus -10.772 -46.5442 104.681
lradius 43.0188
lwrist 21.7926
lhand 1.36377 14.5448
lfingers 7.12502
lthumb 26.896 42.6512
rfemur -28.0873 -7.65014 23.0286
rtibia 45.7316
rfoot -35.3712 -2.89917
rtoes -10.0419
lfemur -17.5545 12.9259 -17.3626
ltibia 46.3801
lfoot -40.567 3.38034
ltoes -18.8547
344
root 1.40252 19.4304 38.8442 8.33891 54.7029 1.75634
lowerback 7.89898 -3.50921 -1.62947
upperback -1.58884 -4.80941 0.675481
thorax -5.8911 -2.30082 2.22781
lowerneck -13.7004 -3.1666 -1.67906
upperneck 27.9886 -1.41932 -7.9309
head 11.3244 -1.68271 -2.79771
rclavicle 6.01137e-014 -4.73356e-015
rhumerus -27.8889 31.6313 -89.7949
rradius 51.7627
rwrist -13.9992
rhand -41.1849 0.627001
rfingers 7.12502
rthumb -14.1098 -28.8739
lclavicle 6.01137e-014 -4.73356e-015
lhumerus -11.9394 -46.1232 105.036
lradius 42.4459
lwrist 22.3353
lhand 0.233927 14.6964
lfingers 7.12502
lthumb 25.8144 42.9648
rfemur -27.564 -7.80078 23.168
rtibia 45.3546
rfoot -35.6874 -3.11414
rtoes -9.65746
lfemur -17.0725 12.4904 -17.184
ltibia 45.4866
lfoot -40.5158 3.7069
ltoes -18.4372
345
root 1.39361 19.4405 39.1899 7.83642 55.3954 1.38275
lowerback 7.70878 -3.48758 -1.71936
upperback -1.66583 -4.78858 0.662245
thorax -5.85894 -2.28825 2.25092
lowerneck -13.6898 -3.20336 -1.6562
upperneck 28.1054 -1.50667 -7.79152
head 11.3634 -1.70306 -2.76558
rclavicle -6.14369e-015 8.44835e-016
rhumerus -29.3837 31.3653 -90.4042
rradius 52.4586
rwrist -14.1367
rhand -41.1786 0.59951
rfingers 7.12502
rthumb -14.1037 -28.9019
lclavicle -6.14369e-015 8.44835e-016
lhumerus -13.006 -45.7637 105.301
lradius 41.9253
lwrist 22.8749
lhand -0.982684 14.8672
lfingers 7.12502
lthumb 24.6488 43.2998
rfemur -27.0791 -7.94538 23.2912
rtibia 44.999
rfoot -35.992 -3.32162
rtoes -9.25506
lfemur -16.5599 11.9561 -16.9836
ltibia 44.6356
lfoot -40.5275 3.77692
ltoes -17.9097
346
root 1.38502 19.4495 39.534 7.32922 56.0782 0.997411
lowerback 7.50847 -3.46235 -1.82188
upperback -1.73968 -4.76328 0.653215
thorax -5.81654 -2.27314 2.28407
lowerneck -13.6792 -3.24165 -1.63179
upperneck 28.2186 -1.6014 -7.63886
head 11.4008 -1.72477 -2.72959
rclavicle 3.67317e-014 2.98177e-015
rhumerus -30.83 31.0446 -90.9769
rradius 53.0643
rwrist -14.2509
rhand -41.1662 0.573232
rfingers 7.12502
rthumb -14.0918 -28.929
lclavicle 3.67317e-014 2.98177e-015
lhumerus -13.9894 -45.4685 105.496
lradius 41.4608
lwrist 23.4186
lhand -2.27573 15.091
lfingers 7.12502
lthumb 23.4089 43.6873
rfemur -26.6253 -8.08719 23.396
rtibia 44.6672
rfoot -36.2949 -3.52199
rtoes -8.83872
lfemur -16.0206 11.3375 -16.7674
ltibia 43.8209
lfoot -40.5778 3.5798
ltoes -17.2479
